<svg width="10" height="15" viewBox="0 0 10 15" fill="none" xmlns="http://www.w3.org/2000/svg">
<path d="M1.42857 15C1.03571 15 0.699405 14.8665 0.419643 14.5994C0.139881 14.3324 0 14.0114 0 13.6364V1.36364C0 0.988636 0.139881 0.667614 0.419643 0.400568C0.699405 0.133523 1.03571 0 1.42857 0H8.57143C8.96429 0 9.3006 0.133523 9.58036 0.400568C9.86012 0.667614 10 0.988636 10 1.36364V13.6364C10 14.0114 9.86012 14.3324 9.58036 14.5994C9.3006 14.8665 8.96429 15 8.57143 15H1.42857ZM1.42857 12.9545V13.6364H8.57143V12.9545H1.42857ZM1.42857 11.5909H8.57143V3.40909H1.42857V11.5909ZM1.42857 2.04545H8.57143V1.36364H1.42857V2.04545Z" fill="white"/>
</svg>
